{
    "accessors" : [
        {
            "bufferView" : 0,
            "componentType" : 5123,
            "count" : 1848,
            "max" : [
                1102
            ],
            "min" : [
                0
            ],
            "type" : "SCALAR"
        },
        {
            "bufferView" : 1,
            "componentType" : 5126,
            "count" : 1103,
            "max" : [
                1.1257907152175903,
                0.741004467010498,
                -1.1250001192092896
            ],
            "min" : [
                0.0,
                0.0,
                -1.5023717880249023
            ],
            "type" : "VEC3"
        },
        {
            "bufferView" : 2,
            "componentType" : 5126,
            "count" : 1103,
            "max" : [
                0.9486804008483887,
                1.0,
                0.948683500289917
            ],
            "min" : [
                -0.9486804008483887,
                -1.0,
                -0.9486834406852722
            ],
            "type" : "VEC3"
        },
        {
            "bufferView" : 3,
            "componentType" : 5123,
            "count" : 2796,
            "max" : [
                1440
            ],
            "min" : [
                0
            ],
            "type" : "SCALAR"
        },
        {
            "bufferView" : 4,
            "componentType" : 5126,
            "count" : 1441,
            "max" : [
                1.5009487867355347,
                0.75,
                1.5000001192092896
            ],
            "min" : [
                -1.5000001192092896,
                -1.3162538767264031e-11,
                -2.1640784740448
            ],
            "type" : "VEC3"
        },
        {
            "bufferView" : 5,
            "componentType" : 5126,
            "count" : 1441,
            "max" : [
                0.9486891627311707,
                1.0,
                0.948683500289917
            ],
            "min" : [
                -0.9486891627311707,
                -1.0,
                -0.9486841559410095
            ],
            "type" : "VEC3"
        },
        {
            "bufferView" : 6,
            "componentType" : 5123,
            "count" : 4440,
            "max" : [
                2351
            ],
            "min" : [
                0
            ],
            "type" : "SCALAR"
        },
        {
            "bufferView" : 7,
            "componentType" : 5126,
            "count" : 2352,
            "max" : [
                1.5009487867355347,
                0.741004467010498,
                1.5000001192092896
            ],
            "min" : [
                -1.5000001192092896,
                -1.5644127974393657e-13,
                -1.5009487867355347
            ],
            "type" : "VEC3"
        },
        {
            "bufferView" : 8,
            "componentType" : 5126,
            "count" : 2352,
            "max" : [
                0.948689341545105,
                1.0,
                0.948689341545105
            ],
            "min" : [
                -0.948689341545105,
                -1.0,
                -0.948689341545105
            ],
            "type" : "VEC3"
        },
        {
            "bufferView" : 9,
            "componentType" : 5123,
            "count" : 267,
            "max" : [
                123
            ],
            "min" : [
                0
            ],
            "type" : "SCALAR"
        },
        {
            "bufferView" : 10,
            "componentType" : 5126,
            "count" : 124,
            "max" : [
                2.037947416305542,
                0.2964017987251282,
                2.0
            ],
            "min" : [
                -2.0,
                0.0,
                -2.037947416305542
            ],
            "type" : "VEC3"
        },
        {
            "bufferView" : 11,
            "componentType" : 5126,
            "count" : 124,
            "max" : [
                0.9486836791038513,
                1.0,
                0.9486834406852722
            ],
            "min" : [
                -0.9486836791038513,
                -1.0,
                -0.9486836791038513
            ],
            "type" : "VEC3"
        }
    ],
    "asset" : {
        "generator" : "Khronos Blender glTF 2.0 exporter",
        "version" : "2.0"
    },
    "bufferViews" : [
        {
            "buffer" : 0,
            "byteLength" : 3696,
            "byteOffset" : 0,
            "target" : 34963
        },
        {
            "buffer" : 0,
            "byteLength" : 13236,
            "byteOffset" : 3696,
            "target" : 34962
        },
        {
            "buffer" : 0,
            "byteLength" : 13236,
            "byteOffset" : 16932,
            "target" : 34962
        },
        {
            "buffer" : 0,
            "byteLength" : 5592,
            "byteOffset" : 30168,
            "target" : 34963
        },
        {
            "buffer" : 0,
            "byteLength" : 17292,
            "byteOffset" : 35760,
            "target" : 34962
        },
        {
            "buffer" : 0,
            "byteLength" : 17292,
            "byteOffset" : 53052,
            "target" : 34962
        },
        {
            "buffer" : 0,
            "byteLength" : 8880,
            "byteOffset" : 70344,
            "target" : 34963
        },
        {
            "buffer" : 0,
            "byteLength" : 28224,
            "byteOffset" : 79224,
            "target" : 34962
        },
        {
            "buffer" : 0,
            "byteLength" : 28224,
            "byteOffset" : 107448,
            "target" : 34962
        },
        {
            "buffer" : 0,
            "byteLength" : 534,
            "byteOffset" : 135672,
            "target" : 34963
        },
        {
            "buffer" : 0,
            "byteLength" : 1488,
            "byteOffset" : 136208,
            "target" : 34962
        },
        {
            "buffer" : 0,
            "byteLength" : 1488,
            "byteOffset" : 137696,
            "target" : 34962
        }
    ],
    "buffers" : [
        {
            "byteLength" : 139184,
            "uri" : "SchoolEntranceFenster.bin"
        }
    ],
    "meshes" : [
        {
            "name" : "Plane.000",
            "primitives" : [
                {
                    "attributes" : {
                        "NORMAL" : 2,
                        "POSITION" : 1
                    },
                    "indices" : 0
                }
            ]
        },
        {
            "name" : "Plane.001",
            "primitives" : [
                {
                    "attributes" : {
                        "NORMAL" : 5,
                        "POSITION" : 4
                    },
                    "indices" : 3
                }
            ]
        },
        {
            "name" : "Plane.002",
            "primitives" : [
                {
                    "attributes" : {
                        "NORMAL" : 8,
                        "POSITION" : 7
                    },
                    "indices" : 6
                }
            ]
        },
        {
            "name" : "Plane.003",
            "primitives" : [
                {
                    "attributes" : {
                        "NORMAL" : 11,
                        "POSITION" : 10
                    },
                    "indices" : 9
                }
            ]
        }
    ],
    "nodes" : [
        {
            "name" : "Camera",
            "rotation" : [
                0.483536034822464,
                0.33687159419059753,
                -0.20870360732078552,
                0.7804827094078064
            ],
            "translation" : [
                7.481131553649902,
                5.34366512298584,
                6.5076398849487305
            ]
        },
        {
            "mesh" : 1,
            "name" : "Entrance0",
            "rotation" : [
                0.0,
                0.1736481785774231,
                -0.0,
                0.9848078489303589
            ],
            "scale" : [
                0.9999999403953552,
                1.0,
                0.9999999403953552
            ]
        },
        {
            "mesh" : 2,
            "name" : "Entrance1",
            "rotation" : [
                0.0,
                0.1736481785774231,
                -0.0,
                0.9848078489303589
            ],
            "scale" : [
                0.9999999403953552,
                1.0,
                0.9999999403953552
            ],
            "translation" : [
                0.0,
                0.75,
                -0.0
            ]
        },
        {
            "name" : "Lamp",
            "rotation" : [
                0.16907575726509094,
                0.7558802962303162,
                -0.27217137813568115,
                0.570947527885437
            ],
            "scale" : [
                1.0,
                1.0,
                0.9999999403953552
            ],
            "translation" : [
                4.076245307922363,
                5.903861999511719,
                -1.0054539442062378
            ]
        },
        {
            "mesh" : 0,
            "name" : "TopSpuren",
            "rotation" : [
                0.0,
                0.1736481785774231,
                -0.0,
                0.9848078489303589
            ],
            "scale" : [
                0.9999999403953552,
                1.0,
                0.9999999403953552
            ],
            "translation" : [
                0.0,
                0.75,
                -0.0
            ]
        },
        {
            "mesh" : 3,
            "name" : "Vorsprung",
            "rotation" : [
                0.0,
                0.1736481785774231,
                -0.0,
                0.9848077893257141
            ],
            "scale" : [
                0.7500000596046448,
                0.3373798727989197,
                0.7500000596046448
            ],
            "translation" : [
                0.0,
                1.5,
                -0.0
            ]
        }
    ],
    "scene" : 0,
    "scenes" : [
        {
            "name" : "Scene",
            "nodes" : [
                4,
                1,
                3,
                0,
                2,
                5
            ]
        }
    ]
}
